<?xml version="1.0" encoding="UTF-8" standalone="no"?><!DOCTYPE svg PUBLIC "-//W3C//DTD SVG 1.1//EN" "http://www.w3.org/Graphics/SVG/1.1/DTD/svg11.dtd"><svg width="100%" height="100%" viewBox="0 0 410 410" version="1.1" xmlns="http://www.w3.org/2000/svg" xmlns:xlink="http://www.w3.org/1999/xlink" xml:space="preserve" xmlns:serif="http://www.serif.com/" style="fill-rule:evenodd;clip-rule:evenodd;stroke-linejoin:round;stroke-miterlimit:2;"><path id="path3338" d="M198.434,409.883c-16.874,-0.524 -33.961,-3.201 -50.151,-7.856c-16.9,-4.86 -33.419,-12.041 -48.45,-21.062c-10.776,-6.468 -20.646,-13.664 -29.998,-21.872c-6.392,-5.61 -13.349,-12.571 -18.994,-19.003c-26.959,-30.72 -44.108,-68.747 -49.201,-109.1c-4.667,-36.974 0.667,-74.238 15.474,-108.104c2.838,-6.49 6.637,-14.001 10.217,-20.196c15.66,-27.101 37.286,-50.285 63.203,-67.757c17.799,-11.999 37.319,-21.112 57.85,-27.006c26.155,-7.509 53.791,-9.718 81.05,-6.479c50.218,5.967 96.519,30.467 130.004,68.792c26.759,30.626 43.818,68.571 48.889,108.75c4.866,38.549 -1.152,77.445 -17.377,112.311c-8.985,19.308 -20.764,36.857 -35.468,52.839c-2.443,2.655 -8.728,8.944 -11.351,11.358c-14.703,13.529 -30.43,24.376 -48.032,33.129c-4.053,2.015 -5.578,2.727 -9.566,4.463c-27.565,12.003 -57.659,17.74 -88.099,16.794Z" style="fill-rule:nonzero;"/><path id="path33381" serif:id="path3338" d="M112.984,297.007c-0.066,-0.022 -0.1,-10.378 -0.1,-30.8l0,-30.767l18.509,18.509l76.725,-76.725l76.725,-76.725l24.586,24.587l-76.646,76.646c-42.155,42.155 -76.663,76.699 -76.685,76.765c-0.022,0.065 4.095,4.253 9.148,9.306c5.053,5.053 9.165,9.191 9.137,9.196c-0.163,0.027 -61.318,0.036 -61.4,0.008Zm61.7,61.858l-0,-61.625l18.577,18.576l153.45,-153.45l12.287,12.287l12.287,12.287l-76.65,76.65c-42.157,42.157 -76.65,76.717 -76.65,76.8c-0,0.082 4.123,4.273 9.163,9.313l9.163,9.164l-61.627,-0.002Zm-123.658,-123.766c-0.023,-0.023 -0.042,-13.883 -0.042,-30.8l0,-30.758l9.266,9.266l9.266,9.266l76.638,-76.638c42.151,-42.151 76.687,-76.668 76.745,-76.705c0.06,-0.037 5.495,5.321 12.383,12.209l12.276,12.276l-76.688,76.687c-42.178,42.178 -76.688,76.721 -76.688,76.762c0,0.041 4.14,4.215 9.2,9.275l9.2,9.201l-30.758,0c-16.917,0 -30.777,-0.019 -30.8,-0.042Z" style="fill:#fff;"/></svg>